<?xml version="1.0" standalone="no"?>
<!DOCTYPE svg PUBLIC "-//W3C//DTD SVG 20010904//EN"
 "http://www.w3.org/TR/2001/REC-SVG-20010904/DTD/svg10.dtd">
<svg version="1.0" xmlns="http://www.w3.org/2000/svg"
 width="700.000000pt" height="700.000000pt" viewBox="0 0 700.000000 700.000000"
 preserveAspectRatio="xMidYMid meet">
<metadata>
Created by potrace 1.11, written by Peter Selinger 2001-2013
</metadata>
<g transform="translate(0.000000,700.000000) scale(0.100000,-0.100000)"
fill="#000000" stroke="none">
<path d="M2058 5685 c-2 -1 -39 -6 -83 -10 -102 -8 -119 -10 -191 -25 -167
-33 -361 -94 -492 -155 -29 -14 -54 -25 -56 -25 -8 0 -174 -94 -226 -128 -191
-124 -404 -315 -532 -478 -232 -293 -388 -646 -449 -1013 -24 -139 -33 -454
-18 -571 25 -193 75 -420 108 -495 5 -11 24 -58 42 -104 175 -449 537 -858
975 -1098 207 -114 479 -209 679 -238 28 -4 61 -9 75 -11 127 -19 359 -24 480
-11 167 18 445 79 508 111 15 7 45 19 67 26 106 34 314 139 440 223 270 178
501 422 675 712 166 275 279 614 306 920 18 200 2 445 -41 631 -24 102 -115
374 -155 459 -74 159 -204 364 -310 490 -115 136 -307 311 -451 410 -116 80
-314 181 -447 229 -41 14 -81 30 -90 35 -28 15 -282 78 -362 89 -41 6 -93 14
-115 18 -41 6 -331 14 -337 9z"/>
<path d="M4595 5674 c-199 -23 -323 -50 -443 -95 -21 -8 -17 -14 62 -94 141
-141 299 -344 413 -530 62 -101 193 -365 193 -389 0 -7 4 -16 9 -21 7 -9 67
-180 91 -260 41 -140 82 -351 97 -500 10 -102 10 -466 0 -565 -9 -90 -23 -177
-63 -376 -9 -46 -56 -203 -88 -294 -135 -380 -359 -736 -651 -1036 -82 -83
-86 -89 -64 -95 147 -44 263 -71 359 -84 25 -3 63 -8 85 -12 59 -9 347 -11
413 -2 31 4 81 10 111 13 114 13 313 63 445 112 181 66 480 233 600 334 195
165 278 251 400 414 174 232 298 490 366 765 34 135 37 152 55 291 15 124 13
430 -5 540 -6 41 -13 89 -16 106 -2 17 -17 83 -33 145 -136 539 -491 1023
-964 1316 -242 149 -550 267 -782 298 -22 3 -51 8 -65 10 -125 22 -383 26
-525 9z"/>
</g>
</svg>
